<svg xmlns="http://www.w3.org/2000/svg" width="498" height="211" viewBox="0 0 498 211">
  <defs>
    <style>
      .cls-1, .cls-4, .cls-6 {
        fill: #243552;
      }

      .cls-1, .cls-5, .cls-6 {
        stroke: #243552;
      }

      .cls-1 {
        stroke-width: 5px;
      }

      .cls-2, .cls-3, .cls-7 {
        fill: #fff;
      }

      .cls-2 {
        stroke: #707070;
      }

      .cls-3 {
        font-size: 18px;
      }

      .cls-3, .cls-4, .cls-7 {
        font-family: KanazawaHonmaruGothicMini;
      }

      .cls-4, .cls-7 {
        font-size: 16px;
      }

      .cls-5, .cls-9 {
        fill: none;
      }

      .cls-5 {
        stroke-width: 2px;
      }

      .cls-8 {
        stroke: none;
      }
    </style>
  </defs>
  <g id="calendar" transform="translate(-514 -403)">
    <g id="長方形_7" data-name="長方形 7" class="cls-1" transform="translate(514 403)">
      <rect class="cls-8" width="498" height="211" rx="27"/>
      <rect class="cls-9" x="2.5" y="2.5" width="493" height="206" rx="24.5"/>
    </g>
    <g id="長方形_8" data-name="長方形 8" class="cls-2" transform="translate(522 459)">
      <rect class="cls-8" width="482" height="130" rx="23"/>
      <rect class="cls-9" x="0.5" y="0.5" width="481" height="129" rx="22.5"/>
    </g>
    <text id="月" class="cls-3" transform="translate(674 436)"><tspan x="0" y="0">月</tspan></text>
    <text id="火" class="cls-3" transform="translate(719 436)"><tspan x="0" y="0">火</tspan></text>
    <text id="水" class="cls-3" transform="translate(765 436)"><tspan x="0" y="0">水</tspan></text>
    <text id="木" class="cls-3" transform="translate(810 436)"><tspan x="0" y="0">木</tspan></text>
    <text id="金" class="cls-3" transform="translate(856 436)"><tspan x="0" y="0">金</tspan></text>
    <text id="土" class="cls-3" transform="translate(902 436)"><tspan x="0" y="0">土</tspan></text>
    <text id="日_祝" data-name="日/祝" class="cls-3" transform="translate(947 436)"><tspan x="0" y="0">日/祝</tspan></text>
    <text id="_9:00_12:30" data-name="9:00~12:30" class="cls-4" transform="translate(541 501)"><tspan x="0" y="0">9:00~12:30</tspan></text>
    <text id="_15:00_19:00" data-name="15:00~19:00" class="cls-4" transform="translate(535 559)"><tspan x="0" y="0">15:00~19:00</tspan></text>
    <line id="線_1" data-name="線 1" class="cls-5" x1="19.753" y2="20.651" transform="translate(671.577 484.257)"/>
    <line id="線_4" data-name="線 4" class="cls-5" x1="19.753" y2="20.651" transform="translate(958.896 482.462)"/>
    <line id="線_3" data-name="線 3" class="cls-5" x1="19.753" y2="20.651" transform="translate(899.636 535.436)"/>
    <line id="線_2" data-name="線 2" class="cls-5" x1="19.753" y2="20.651" transform="translate(671.577 537.232)"/>
    <line id="線_5" data-name="線 5" class="cls-5" x1="19.753" y2="20.651" transform="translate(958.896 535.436)"/>
    <g id="楕円形_1" data-name="楕円形 1" class="cls-6" transform="translate(717 485)">
      <ellipse class="cls-8" cx="10" cy="9.5" rx="10" ry="9.5"/>
      <ellipse class="cls-9" cx="10" cy="9.5" rx="9.5" ry="9"/>
    </g>
    <g id="楕円形_3" data-name="楕円形 3" class="cls-6" transform="translate(763 485)">
      <circle class="cls-8" cx="9.5" cy="9.5" r="9.5"/>
      <circle class="cls-9" cx="9.5" cy="9.5" r="9"/>
    </g>
    <g id="楕円形_5" data-name="楕円形 5" class="cls-6" transform="translate(809 483)">
      <ellipse class="cls-8" cx="9.5" cy="10" rx="9.5" ry="10"/>
      <ellipse class="cls-9" cx="9.5" cy="10" rx="9" ry="9.5"/>
    </g>
    <g id="楕円形_7" data-name="楕円形 7" class="cls-6" transform="translate(854 484)">
      <circle class="cls-8" cx="10" cy="10" r="10"/>
      <circle class="cls-9" cx="10" cy="10" r="9.5"/>
    </g>
    <g id="楕円形_9" data-name="楕円形 9" class="cls-6" transform="translate(900 484)">
      <circle class="cls-8" cx="10" cy="10" r="10"/>
      <circle class="cls-9" cx="10" cy="10" r="9.5"/>
    </g>
    <g id="楕円形_2" data-name="楕円形 2" class="cls-6" transform="translate(717 537)">
      <circle class="cls-8" cx="10" cy="10" r="10"/>
      <circle class="cls-9" cx="10" cy="10" r="9.5"/>
    </g>
    <g id="楕円形_4" data-name="楕円形 4" class="cls-6" transform="translate(763 537)">
      <ellipse class="cls-8" cx="9.5" cy="10" rx="9.5" ry="10"/>
      <ellipse class="cls-9" cx="9.5" cy="10" rx="9" ry="9.5"/>
    </g>
    <g id="楕円形_6" data-name="楕円形 6" class="cls-6" transform="translate(809 535)">
      <circle class="cls-8" cx="10" cy="10" r="10"/>
      <circle class="cls-9" cx="10" cy="10" r="9.5"/>
    </g>
    <g id="楕円形_8" data-name="楕円形 8" class="cls-6" transform="translate(854 536)">
      <circle class="cls-8" cx="10" cy="10" r="10"/>
      <circle class="cls-9" cx="10" cy="10" r="9.5"/>
    </g>
    <text id="受付時間" class="cls-7" transform="translate(554 437)"><tspan x="0" y="0">受付時間</tspan></text>
  </g>
</svg>
